<svg width="15" height="15" viewBox="0 0 15 15" fill="none" xmlns="http://www.w3.org/2000/svg">
<g clip-path="url(#clip0_472_2806)">
<path d="M4.47125 10.5288L8.41375 8.41375L10.5288 4.47125L6.58687 6.58687L4.47125 10.5288ZM7.5 8.125C7.32292 8.125 7.17458 8.065 7.055 7.945C6.93542 7.825 6.87542 7.67667 6.875 7.5C6.87458 7.32333 6.93458 7.175 7.055 7.055C7.17542 6.935 7.32375 6.875 7.5 6.875C7.67625 6.875 7.82479 6.935 7.94563 7.055C8.06646 7.175 8.12625 7.32333 8.125 7.5C8.12375 7.67667 8.06375 7.82521 7.945 7.94563C7.82625 8.06604 7.67792 8.12583 7.5 8.125ZM7.50187 13.125C6.72396 13.125 5.99271 12.9775 5.30813 12.6825C4.62354 12.3871 4.02792 11.9863 3.52125 11.48C3.01458 10.9738 2.61354 10.3788 2.31813 9.695C2.02271 9.01125 1.875 8.28021 1.875 7.50188C1.875 6.72354 2.02271 5.99229 2.31813 5.30813C2.61313 4.62354 3.01333 4.02792 3.51875 3.52125C4.02417 3.01458 4.61938 2.61354 5.30438 2.31813C5.98938 2.02271 6.72062 1.875 7.49813 1.875C8.27562 1.875 9.00688 2.02271 9.69187 2.31813C10.3765 2.61313 10.9721 3.01354 11.4787 3.51938C11.9854 4.02521 12.3865 4.62042 12.6819 5.305C12.9773 5.98958 13.125 6.72063 13.125 7.49813C13.125 8.27563 12.9775 9.00688 12.6825 9.69188C12.3875 10.3769 11.9867 10.9725 11.48 11.4788C10.9733 11.985 10.3783 12.386 9.695 12.6819C9.01167 12.9777 8.28063 13.1254 7.50187 13.125ZM7.5 12.5C8.89583 12.5 10.0781 12.0156 11.0469 11.0469C12.0156 10.0781 12.5 8.89583 12.5 7.5C12.5 6.10417 12.0156 4.92188 11.0469 3.95312C10.0781 2.98438 8.89583 2.5 7.5 2.5C6.10417 2.5 4.92187 2.98438 3.95312 3.95312C2.98437 4.92188 2.5 6.10417 2.5 7.5C2.5 8.89583 2.98437 10.0781 3.95312 11.0469C4.92187 12.0156 6.10417 12.5 7.5 12.5Z" fill="white"/>
</g>
<defs>
<clipPath id="clip0_472_2806">
<rect width="15" height="15" fill="white"/>
</clipPath>
</defs>
</svg>
