<svg width="20" height="21" viewBox="0 0 20 21" fill="none" xmlns="http://www.w3.org/2000/svg">
<path d="M17.6562 10.5H16.5625C16.4766 10.5 16.4062 10.5703 16.4062 10.6562V16.9062H3.59375V4.09375H9.84375C9.92969 4.09375 10 4.02344 10 3.9375V2.84375C10 2.75781 9.92969 2.6875 9.84375 2.6875H2.8125C2.4668 2.6875 2.1875 2.9668 2.1875 3.3125V17.6875C2.1875 18.0332 2.4668 18.3125 2.8125 18.3125H17.1875C17.5332 18.3125 17.8125 18.0332 17.8125 17.6875V10.6562C17.8125 10.5703 17.7422 10.5 17.6562 10.5Z" fill="#394F89" stroke="white" stroke-width="0.3"/>
<path d="M6.95119 10.9473L6.91408 13.2695C6.91213 13.4434 7.05275 13.5859 7.22658 13.5859H7.23439L9.53908 13.5293C9.57814 13.5273 9.61721 13.5117 9.64455 13.4844L17.7676 5.37891C17.8281 5.31836 17.8281 5.21875 17.7676 5.1582L15.3399 2.73242C15.3086 2.70117 15.2696 2.6875 15.2285 2.6875C15.1875 2.6875 15.1485 2.70313 15.1172 2.73242L6.99611 10.8379C6.9679 10.8674 6.95186 10.9065 6.95119 10.9473ZM8.19143 11.4082L15.2285 4.38672L16.1113 5.26758L9.07033 12.293L8.17775 12.3145L8.19143 11.4082Z" fill="#394F89" stroke="white" stroke-width="0.3"/>
</svg>
