<svg width="20" height="21" viewBox="0 0 20 21" fill="none" xmlns="http://www.w3.org/2000/svg">
<path d="M12.083 15.9167H5.41634C5.19533 15.9167 4.98337 15.8289 4.82709 15.6726C4.67081 15.5163 4.58301 15.3044 4.58301 15.0833V8.41668C4.58301 7.53262 4.9342 6.68478 5.55932 6.05965C6.18444 5.43453 7.03229 5.08334 7.91634 5.08334H12.083C12.9671 5.08334 13.8149 5.43453 14.44 6.05965C15.0652 6.68478 15.4163 7.53262 15.4163 8.41668V10.0833" stroke="#394F89" stroke-linecap="round"/>
<path d="M6.25 9.25H12.0833M6.25 11.75H10.4167" stroke="#394F89" stroke-linecap="round" stroke-linejoin="round"/>
<path d="M13.7497 15.0833C14.6701 15.0833 15.4163 14.3371 15.4163 13.4167C15.4163 12.4962 14.6701 11.75 13.7497 11.75C12.8292 11.75 12.083 12.4962 12.083 13.4167C12.083 14.3371 12.8292 15.0833 13.7497 15.0833Z" stroke="#394F89"/>
<path d="M15.833 15.5L17.083 16.75" stroke="#394F89" stroke-linecap="round"/>
</svg>
