<svg width="25" height="25" viewBox="0 0 25 25" fill="none" xmlns="http://www.w3.org/2000/svg">
<path d="M12.5 16.9922C13.6909 16.9906 14.8326 16.5169 15.6747 15.6747C16.5169 14.8326 16.9906 13.6909 16.9922 12.5V6.25C16.9922 5.0586 16.5189 3.91599 15.6765 3.07354C14.834 2.2311 13.6914 1.75781 12.5 1.75781C11.3086 1.75781 10.166 2.2311 9.32354 3.07354C8.4811 3.91599 8.00781 5.0586 8.00781 6.25V12.5C8.00936 13.6909 8.48314 14.8326 9.32526 15.6747C10.1674 16.5169 11.3091 16.9906 12.5 16.9922ZM9.17969 6.25C9.17969 5.3694 9.5295 4.52486 10.1522 3.90218C10.7749 3.27951 11.6194 2.92969 12.5 2.92969C13.3806 2.92969 14.2251 3.27951 14.8478 3.90218C15.4705 4.52486 15.8203 5.3694 15.8203 6.25V12.5C15.8203 13.3806 15.4705 14.2251 14.8478 14.8478C14.2251 15.4705 13.3806 15.8203 12.5 15.8203C11.6194 15.8203 10.7749 15.4705 10.1522 14.8478C9.5295 14.2251 9.17969 13.3806 9.17969 12.5V6.25ZM13.0859 20.0928V23.4375C13.0859 23.5929 13.0242 23.7419 12.9143 23.8518C12.8044 23.9617 12.6554 24.0234 12.5 24.0234C12.3446 24.0234 12.1956 23.9617 12.0857 23.8518C11.9758 23.7419 11.9141 23.5929 11.9141 23.4375V20.0928C10.002 19.9432 8.21657 19.0787 6.91347 17.6715C5.61037 16.2644 4.88532 14.4179 4.88281 12.5C4.88281 12.3446 4.94454 12.1956 5.05443 12.0857C5.16431 11.9758 5.31335 11.9141 5.46875 11.9141C5.62415 11.9141 5.77319 11.9758 5.88307 12.0857C5.99296 12.1956 6.05469 12.3446 6.05469 12.5C6.05469 14.2094 6.73375 15.8488 7.94248 17.0575C9.15121 18.2663 10.7906 18.9453 12.5 18.9453C14.2094 18.9453 15.8488 18.2663 17.0575 17.0575C18.2663 15.8488 18.9453 14.2094 18.9453 12.5C18.9453 12.3446 19.007 12.1956 19.1169 12.0857C19.2268 11.9758 19.3758 11.9141 19.5312 11.9141C19.6867 11.9141 19.8357 11.9758 19.9456 12.0857C20.0555 12.1956 20.1172 12.3446 20.1172 12.5C20.1147 14.4179 19.3896 16.2644 18.0865 17.6715C16.7834 19.0787 14.998 19.9432 13.0859 20.0928Z" fill="#4D4D4D"/>
</svg>
