<svg width="20" height="21" viewBox="0 0 20 21" fill="none" xmlns="http://www.w3.org/2000/svg">
<path d="M9.58333 14.25H10.4167V9.66667H9.58333V14.25ZM10 8.48083C10.1456 8.48083 10.2675 8.43167 10.3658 8.33333C10.4642 8.235 10.5131 8.11306 10.5125 7.9675C10.5119 7.82195 10.4628 7.70028 10.365 7.6025C10.2672 7.50472 10.1456 7.45556 10 7.455C9.85444 7.45444 9.73278 7.50361 9.635 7.6025C9.53722 7.70139 9.48806 7.82333 9.4875 7.96833C9.48694 8.11333 9.53611 8.235 9.635 8.33333C9.73389 8.43167 9.85556 8.48083 10 8.48083ZM10.0025 18C8.96528 18 7.99028 17.8033 7.0775 17.41C6.16472 17.0161 5.37056 16.4817 4.695 15.8067C4.01944 15.1317 3.48472 14.3383 3.09083 13.4267C2.69694 12.515 2.5 11.5403 2.5 10.5025C2.5 9.46472 2.69694 8.48972 3.09083 7.5775C3.48417 6.66472 4.01778 5.87056 4.69167 5.195C5.36556 4.51944 6.15917 3.98472 7.0725 3.59083C7.98583 3.19694 8.96083 3 9.9975 3C11.0342 3 12.0092 3.19694 12.9225 3.59083C13.8353 3.98417 14.6294 4.51806 15.305 5.1925C15.9806 5.86694 16.5153 6.66056 16.9092 7.57333C17.3031 8.48611 17.5 9.46083 17.5 10.4975C17.5 11.5342 17.3033 12.5092 16.91 13.4225C16.5167 14.3358 15.9822 15.13 15.3067 15.805C14.6311 16.48 13.8378 17.0147 12.9267 17.4092C12.0156 17.8036 11.0408 18.0006 10.0025 18ZM10 17.1667C11.8611 17.1667 13.4375 16.5208 14.7292 15.2292C16.0208 13.9375 16.6667 12.3611 16.6667 10.5C16.6667 8.63889 16.0208 7.0625 14.7292 5.77083C13.4375 4.47917 11.8611 3.83333 10 3.83333C8.13889 3.83333 6.5625 4.47917 5.27083 5.77083C3.97917 7.0625 3.33333 8.63889 3.33333 10.5C3.33333 12.3611 3.97917 13.9375 5.27083 15.2292C6.5625 16.5208 8.13889 17.1667 10 17.1667Z" fill="#394F89" stroke="#394F89" stroke-width="0.3"/>
</svg>
